# xmcd CD database file
#
# Track frame offsets:
#	150
#	22966
#	36656
#	77208
#	87361
#	132203
#	153258
#	192058
#	203642
#	228872
#
# Disc length: 3511 seconds
#
# Revision: 0
# Processed by: cddbd v1.5.2PL0 Copyright (c) Steve Scherf et al.
# Submitted via: CDex 1.51
#
DISCID=750db50a
DTITLE=Year Of No Light - Nord
DYEAR=2006
DGENRE=New Age
TTITLE0=Sélénite
TTITLE1=L'angoisse du veilleur de nuit d'autoroute les soirs d'alarme à accident
TTITLE2=Traversée 
TTITLE3=Librium
TTITLE4=Les mains de l'empereur
TTITLE5=Tu as fait de moi un homme meilleur
TTITLE6=Somnambule
TTITLE7=Prosodia
TTITLE8=Par économie pendant la crise on éteint la lumière au bout du tunnel
TTITLE9=La bouche de Vitus Bering
EXTD=YEAR: 2006
EXTT0=
EXTT1=
EXTT2=
EXTT3=
EXTT4=
EXTT5=
EXTT6=
EXTT7=
EXTT8=
EXTT9=
PLAYORDER=
